<?xml version="1.0" encoding="UTF-8" standalone="no"?>
<svg
   xmlns:dc="http://purl.org/dc/elements/1.1/"
   xmlns:cc="http://creativecommons.org/ns#"
   xmlns:rdf="http://www.w3.org/1999/02/22-rdf-syntax-ns#"
   xmlns:svg="http://www.w3.org/2000/svg"
   xmlns="http://www.w3.org/2000/svg"
   version="1.1"
   id="svg5346"
   viewBox="0 0 193.87645 86.589391"
   height="24.43745mm"
   width="54.716244mm">
  <defs
     id="defs5348" />
  <metadata
     id="metadata5351">
    <rdf:RDF>
      <cc:Work
         rdf:about="">
        <dc:format>image/svg+xml</dc:format>
        <dc:type
           rdf:resource="http://purl.org/dc/dcmitype/StillImage" />
        <dc:title></dc:title>
      </cc:Work>
    </rdf:RDF>
  </metadata>
  <g
     transform="translate(-174.49034,-331.92465)"
     id="layer1">
    <g
       transform="translate(354.28571,271.42857)"
       id="g5368">
      <path
         style="fill:#000000"
         d="m -35.746763,146.84533 c -2.4584,-0.36047 -3.83918,-1.21321 -4.76452,-2.94248 -0.46742,-0.8735 -0.4827,-1.13618 -0.54759,-9.41219 l -0.0667,-8.51362 1.60292,0.0647 1.60292,0.0647 0.10973,8.15181 c 0.14388,10.68984 -0.59212,9.80906 8.2843,9.9138 l 5.98006,0.0706 0,1.41073 0,1.41074 -5.54116,-0.0274 c -3.04763,-0.0151 -6.04458,-0.1012 -6.65989,-0.19142 z m 15.49283,-7.46202 0,-7.68081 1.53617,0 1.53616,0 0,7.68081 0,7.68081 -1.53616,0 -1.53617,0 0,-7.68081 z m 6.62639,-0.70243 c 0.0593,-7.44325 0.10993,-8.48343 0.44305,-9.09189 0.9578,-1.74948 2.79455,-2.51584 6.1575202,-2.56913 l 2.2444,-0.0356 0.0658,1.26185 0.0658,1.26184 -1.7117,0.005 c -0.94144,0.003 -2.09157,0.0934 -2.55586,0.20112 -1.03113,0.23928 -1.8989902,1.0121 -1.8989902,1.69104 0,0.49853 0.0338,0.50486 3.0174602,0.56524 l 3.01746,0.061 0.0653,1.37158 0.0653,1.37157 -3.07932,0 -3.0793302,0 -0.0583,6.08978 -0.0583,6.08979 -1.38359,0.0657 -1.3836,0.0657 0.0669,-8.40481 z m 14.8170102,8.07114 c -1.39542001,-0.37525 -2.558,-1.33361 -3.2289,-2.6617 -0.50135,-0.99247 -0.55522,-1.37916 -0.62515,-4.48756 -0.095,-4.2212 0.11911,-5.31837 1.29936,-6.65921 1.41939999,-1.61252 2.01500999,-1.74351 7.48709,-1.64669 4.4550698,0.0788 4.7286098,0.10859 5.7738898,0.62823 1.58967,0.79029 2.19554,2.06716 2.1852,4.60535 -0.0115,2.81252 -0.89786,4.20211 -3.06301,4.8018 -0.52022,0.1441 -2.8668598,0.24364 -5.7606098,0.24436 l -4.88280001,8.8e-4 0,0.55635 c 0,0.64458 0.51979,1.52151 1.05557001,1.78079 0.20398,0.0987 2.78911,0.23045 5.74474,0.29275 6.0536898,0.12758 5.6719898,-0.007 5.3868698,1.89464 l -0.14423,0.96176 -5.0887998,-0.0148 c -3.41498,-0.01 -5.43431,-0.10773 -6.13922,-0.29729 z m 8.70959,-8.11361 c 1.3025998,-0.54426 1.7866198,-1.84729 1.2300098,-3.31128 -0.39655,-1.04304 -1.3874398,-1.25548 -5.4686598,-1.17248 -2.93339,0.0596 -3.77488,0.14759 -4.33493,0.45301 -1.24963001,0.68149 -1.49429001,2.66971 -0.44579001,3.6229 0.72370001,0.65791 0.85851001,0.67783 4.71388001,0.69652 2.59285,0.0126 3.77406,-0.0666 4.30549,-0.28867 z m -189.6944272,-2.32743 0,-10.53368 1.31671,0 1.31671,0 0,3.51123 0,3.51123 6.58355,0 6.58356,0 0,-3.51123 0,-3.51123 1.31671,0 1.31671,0 0,10.53368 0,10.53369 -1.31288,0 -1.31287,0 -0.0587,-5.43143 -0.0587,-5.43143 -6.52869,-0.0581 -6.52869,-0.0581 0,5.48956 0,5.48957 -1.31671,0 -1.31671,0 0,-10.5337 z m 24.98108,10.18796 c -1.84407,-0.56757 -2.59356,-1.97465 -2.59577,-4.8733 -0.002,-1.78392 0.36677,-2.90242 1.2634,-3.83851 1.01364,-1.05827 2.2236,-1.25669 7.663,-1.25669 l 4.89783,0 0,-0.56306 c 0,-0.30968 -0.1067,-0.76243 -0.23711,-1.00611 -0.4828,-0.90212 -1.37786,-1.04244 -6.8641,-1.07607 l -5.18809,-0.0318 0,-1.40462 0,-1.40462 5.22701,0 c 5.85592,0 6.93853,0.17773 8.2853,1.36021 1.57955,1.38687 1.73097,1.95662 1.81092,6.81355 0.0697,4.23436 0.0588,4.36081 -0.47899,5.53539 -0.94135,2.05618 -1.0697,2.09226 -7.38287,2.07527 -4.01695,-0.0108 -5.63551,-0.0942 -6.40053,-0.32962 z m 10.03642,-2.82842 c 1.54202,-0.6443 1.81157,-2.93531 0.46321,-3.93701 -0.5484,-0.4074 -0.98364,-0.4686 -3.81089,-0.53591 -3.84899,-0.0916 -4.91713,0.0466 -5.74518,0.74334 -1.12619,0.94762 -1.0434,3.06591 0.14505,3.71102 0.85302,0.46303 7.84932,0.47753 8.94781,0.0186 z m 7.81718,-2.58646 c 0.0645,-5.45454 0.0939,-5.80882 0.55344,-6.66792 0.65654,-1.2275 1.72111,-2.25198 2.91375,-2.80402 0.86486,-0.40034 1.40604,-0.45825 4.28177,-0.45825 3.81238,0 4.5542,0.18613 5.98009,1.50047 1.87447,1.72783 1.91086,1.8821 1.98832,8.42972 l 0.0681,5.76061 -1.33,0 -1.33,0 -0.01,-4.77307 c -0.0122,-6.03297 -0.24505,-6.82069 -2.29461,-7.76185 -0.65606,-0.30127 -1.40445,-0.4031 -2.9626,-0.4031 -2.48117,0 -3.56751,0.39609 -4.52424,1.64958 l -0.63288,0.82919 -0.0693,5.22963 -0.0693,5.22962 -1.31565,0 -1.31564,0 0.0681,-5.76061 z m 23.02828,5.39688 c -1.19223,-0.43399 -2.55532,-1.77048 -3.17675,-3.11476 -0.43722,-0.94582 -0.47663,-1.43345 -0.54006,-6.68198 l -0.0685,-5.66171 1.38514,0.0657 1.38514,0.0657 0.10973,5.19655 c 0.10212,4.83655 0.14156,5.23943 0.56927,5.81547 0.86521,1.1653 1.95995,1.59882 4.04758,1.60285 2.20961,0.004 3.52018,-0.51997 4.32404,-1.7296 0.47898,-0.72076 0.49554,-0.91689 0.49554,-5.87034 l 0,-5.12466 1.42643,0 1.42645,0 8.7e-4,4.66335 c 7e-4,2.56484 0.0985,5.01336 0.21731,5.44117 0.24512,0.88237 1.3458,2.04437 2.26458,2.39077 0.888397,0.33494 3.981577,0.28996 4.820707,-0.0701 0.38829,-0.16666 1.05171,-0.66572 1.47415,-1.10902 l 0.76809,-0.80601 0.0659,-5.25508 0.0659,-5.25508 1.30562,0 1.30563,0 -0.004,5.65088 c -0.005,6.29048 -0.10164,6.7938 -1.59863,8.3584 -1.43642,1.50129 -2.06426,1.68152 -5.85791,1.68152 -3.283287,0 -3.435827,-0.0202 -4.389297,-0.58075 -0.54329,-0.31941 -1.16401,-0.77546 -1.37938,-1.01344 -0.38791,-0.42863 -0.39758,-0.42706 -1.03489,0.16827 -1.29695,1.21155 -2.03952,1.41462 -5.376,1.47021 -2.3629,0.0394 -3.29402,-0.0295 -4.03243,-0.29829 z m 27.404047,-10.16996 0,-10.53368 1.31671,0 1.31671,0 0,3.07233 c 0,1.68977 0.0474,3.07232 0.10529,3.07232 0.0579,0 0.52698,-0.17282 1.04239,-0.38404 0.74921,-0.30704 1.59716,-0.38404 4.22889,-0.38404 3.16187,0 3.34121,0.0242 4.54438,0.61511 0.71277,0.35002 1.54151,0.97987 1.92294,1.46148 1.22504,1.54673 1.32322,2.15182 1.32322,8.1555 l 0,5.45871 -1.31672,0 -1.31671,0 0,-4.94471 c 0,-5.44163 -0.0943,-5.95312 -1.28129,-6.95194 -1.05014,-0.88363 -2.03094,-1.11005 -4.39689,-1.01501 -2.40518,0.0966 -3.38949,0.52254 -4.18608,1.81144 -0.42042,0.68026 -0.44997,1.06859 -0.44997,5.91414 l 0,5.18608 -1.42644,0 -1.42643,0 0,-10.53369 z m 22.21251,10.27644 c -1.15898,-0.25932 -2.35081,-1.3922 -2.66862,-2.53662 -0.12633,-0.45489 -0.22807,-1.56773 -0.22609,-2.47297 0.006,-2.76728 1.07806,-4.33398 3.29013,-4.80838 0.61295,-0.13145 3.23279,-0.23901 5.82187,-0.23901 l 4.70742,0 0,-0.56306 c 0,-0.80001 -0.35152,-1.35556 -1.10395,-1.74465 -0.52381,-0.27087 -1.67704,-0.34684 -5.86383,-0.38631 l -5.2118,-0.0491 -0.0653,-1.37158 -0.0653,-1.37157 5.23748,0 c 5.86726,0 6.94848,0.17728 8.29577,1.36022 0.42786,0.37566 0.9943,1.08738 1.25876,1.5816 0.45102,0.84287 0.48083,1.18433 0.48083,5.50707 0,4.24581 -0.0361,4.67757 -0.45799,5.4863 -0.2519,0.4828 -0.78496,1.1 -1.18457,1.37157 -0.70651,0.48011 -0.87283,0.49311 -6.01584,0.47026 -2.90909,-0.0129 -5.71209,-0.11811 -6.2289,-0.23374 z m 9.95466,-3.0094 c 1.39571,-0.85109 1.52392,-2.89126 0.24161,-3.84451 -0.54952,-0.4085 -0.97869,-0.46797 -3.83801,-0.53184 -1.77061,-0.0396 -3.63961,-0.009 -4.15332,0.0681 -1.7946,0.26912 -2.68786,1.61853 -2.21207,3.34171 0.33706,1.22075 0.88571,1.36168 5.33582,1.37066 3.48708,0.007 4.02935,-0.0404 4.62597,-0.40417 z m 34.62607,-13.22945 c -0.50808,-0.24602 -0.95771,-1.05187 -0.95771,-1.71648 0,-0.229 0.2364,-0.69118 0.52534,-1.02709 1.11193,-1.29269 3.42479,-0.49369 3.42479,1.18312 0,1.43464 -1.56588,2.25119 -2.99242,1.56045 z"
         id="path5127" />
      <g
         id="g5196"
         transform="translate(-114.11582,60.496384)">
        <path
           style="fill:#fbb584"
           d="m 23.083,29.063 c -0.809,-7.373 6.915,-13.286 17.255,-13.205 10.337,0.082 19.38,6.12 20.189,13.483 0.81,7.374 -6.91,13.28 -17.25,13.201 C 32.939,42.467 23.895,36.427 23.083,29.063 m 39.366,2.286 C 61.515,22.208 51.109,14.722 39.211,14.623 27.305,14.525 18.418,21.856 19.354,30.993 c 0.934,9.14 11.339,16.628 23.239,16.728 11.901,0.095 20.794,-7.234 19.856,-16.372"
           id="path5198" />
        <path
           style="fill:#f89b6c"
           d="M 44.482,47.9 C 38.625,54.033 29.211,54.537 23.47,49.037 17.726,43.542 17.824,34.12 23.689,27.996 29.552,21.871 38.963,21.363 44.704,26.86 50.443,32.359 50.347,41.783 44.482,47.9 M 22.766,27.803 c -6.814,7.115 -6.925,18.067 -0.25,24.461 6.674,6.387 17.614,5.799 24.425,-1.32 6.815,-7.118 6.929,-18.071 0.252,-24.463 -6.673,-6.388 -17.611,-5.799 -24.427,1.322"
           id="path5200" />
        <path
           style="fill:#f37321"
           d="M 23.389,4.876 C 35.582,0.309 47.637,4.93 50.315,15.197 52.998,25.472 45.286,37.505 33.095,42.069 20.901,46.644 8.844,42.019 6.167,31.75 3.481,21.48 11.198,9.449 23.389,4.876 M 12.065,8.804 C -0.583,18.817 -3.802,33.332 4.872,41.214 13.548,49.1 30.835,47.37 43.487,37.356 56.136,27.344 59.359,12.835 50.679,4.947 41.999,-2.938 24.713,-1.213 12.065,8.804"
           id="path5202" />
      </g>
    </g>
  </g>
</svg>
